<?xml version="1.0" standalone="no"?>
<!DOCTYPE svg PUBLIC "-//W3C//DTD SVG 20010904//EN"
 "http://www.w3.org/TR/2001/REC-SVG-20010904/DTD/svg10.dtd">
<svg version="1.0" xmlns="http://www.w3.org/2000/svg"
 width="600.000000pt" height="600.000000pt" viewBox="0 0 600.000000 600.000000"
 preserveAspectRatio="xMidYMid meet">

<g transform="translate(0.000000,600.000000) scale(0.100000,-0.100000)"
fill="#000000" stroke="none">
<path d="M0 3000 l0 -3000 3000 0 3000 0 0 3000 0 3000 -3000 0 -3000 0 0
-3000z m2828 2048 c-2 -6 13 -15 32 -20 56 -14 357 -14 430 1 60 11 74 10 150
-9 289 -74 490 -206 624 -408 111 -170 178 -323 218 -502 19 -89 23 -132 23
-280 -1 -318 -57 -519 -313 -1115 -222 -516 -262 -641 -301 -940 -28 -212 -67
-313 -166 -423 -54 -60 -123 -112 -209 -158 l-61 -34 65 -1 c121 -3 242 -14
335 -30 81 -14 99 -17 105 -19 3 -1 8 -2 11 -2 4 1 9 -8 12 -18 3 -11 1 -18
-4 -14 -5 3 -9 0 -9 -6 0 -6 -4 -8 -10 -5 -5 3 -16 3 -22 -2 -14 -8 -24 -10
-73 -18 -340 -51 -1307 -51 -1640 0 -54 8 -64 11 -71 17 -3 4 -12 4 -19 2 -7
-3 -15 2 -18 11 -9 22 -8 30 3 31 6 1 11 2 13 4 5 4 164 30 214 35 41 4 248
16 328 20 92 4 92 5 30 33 -303 137 -503 327 -727 692 -276 449 -408 866 -408
1292 0 167 10 269 42 423 74 364 300 805 533 1040 206 208 468 341 785 399 98
18 100 18 98 4z"/>
</g>
</svg>
